Coordinates
version=1
nRows=8
nColumns=36
inDegrees=yes

Units are S.I. units (second, meters, Newtons, ...)
If the header above contains a line with 'inDegrees', this indicates whether rotational values are in degrees (yes) or radians (no).

endheader
time	pelvis_tilt	pelvis_list	pelvis_rotation	pelvis_tx	pelvis_ty	pelvis_tz	hip_flexion_r	hip_adduction_r	hip_rotation_r	knee_angle_r	knee_angle_r_beta	ankle_angle_r	subtalar_angle_r	mtp_angle_r	hip_flexion_l	hip_adduction_l	hip_rotation_l	knee_angle_l	knee_angle_l_beta	ankle_angle_l	subtalar_angle_l	mtp_angle_l	lumbar_extension	lumbar_bending	lumbar_rotation	arm_flex_r	arm_add_r	arm_rot_r	elbow_flex_r	pro_sup_r	arm_flex_l	arm_add_l	arm_rot_l	elbow_flex_l	pro_sup_l
      2.36666670	    -37.56266945	     -8.72102611	     -0.65336187	      1.11526541	      0.61668584	     -0.23754100	    100.77539898	     -2.52686754	     -2.98246137	    100.62025877	      1.75615481	     38.69436494	     -7.65700990	     -7.49999987	    105.45716137	    -19.11004022	     12.01188138	    103.47735732	      1.80602059	     38.80047759	     -0.84071122	     -7.49999987	    -23.78215787	      3.33700871	      6.68724504	     42.68278733	    -26.08015525	     10.25132468	     94.59397716	     89.15164700	     48.22613073	    -32.35065572	     18.67058476	     91.34692877	     87.15347446
      2.38333330	    -40.47069628	     -9.41964529	     -2.07508329	      1.12775995	      0.59301081	     -0.22712819	    104.97728880	     -1.56968603	     -4.43986375	    103.41675310	      1.80496284	     40.41258603	     -7.60342812	     -7.49999987	    110.71635832	    -21.23390091	     14.07994398	    106.31443542	      1.85553694	     40.57229685	      1.09606761	     -7.49999987	    -22.40216341	      2.23285021	      7.86272331	     43.85737991	    -25.03106575	     11.49043121	     95.17728232	     90.63201393	     49.05058444	    -33.83983485	     19.90388361	     92.39998612	     88.69839262
      2.40000000	    -43.28134030	     -9.48067164	     -2.30674574	      1.08995893	      0.57243437	     -0.24097496	    110.07084239	     -2.67243628	     -5.10758114	    105.72220766	      1.84520062	     40.79416289	     -7.11846001	     -7.49999987	    116.13669383	    -21.51346928	     14.41651852	    108.37422493	      1.89148705	     40.97683916	      1.58421343	     -7.49999987	    -22.19319246	      1.77487064	      8.11555370	     50.16780444	    -26.12955154	     12.54452931	     93.02500677	     91.38163177	     55.46454441	    -33.38508518	     22.92880708	     94.06000152	     89.57273737
      2.41666670	    -44.18499152	     -8.93721863	     -1.67311680	      1.07088143	      0.55704334	     -0.23777097	    113.59669834	     -4.11554413	     -4.88672244	    107.48704161	      1.87600278	     40.73836202	     -6.13669803	     -7.49999987	    119.14618712	    -21.28659045	     13.37693527	    109.61806192	      1.91319610	     40.55624677	      1.55848860	     -7.49999987	    -23.82401104	      0.83476994	      7.54671932	     57.70086046	    -26.95854310	     15.27558109	     90.54614895	     90.59768653	     64.65770187	    -33.90316379	     29.45345656	     91.60658031	     88.88160514
      2.43333330	    -43.49462704	     -7.81959013	     -0.73393847	      1.07481143	      0.54246717	     -0.23793364	    115.51126771	     -5.62475985	     -4.05159147	    109.57646632	      1.91247012	     41.15709607	     -4.83363238	     -7.49999987	    119.66072603	    -21.24626923	     11.60441179	    110.87611303	      1.93515323	     40.31593114	      1.18979329	     -7.49999987	    -26.81946716	     -0.49376043	      6.56630297	     62.60355649	    -27.33940417	     17.22846008	     90.42440150	     89.52267234	     70.09334846	    -34.02034220	     32.45461858	     90.71298252	     87.87909213
      2.45000000	    -42.75910105	     -6.82119415	      0.32516047	      1.05269039	      0.54227378	     -0.25812780	    116.98821881	     -7.62540395	     -3.28875740	    110.71587447	      1.93235654	     40.86260980	     -3.77517469	     -7.49999987	    119.78617145	    -20.71935688	      9.24993282	    111.48886894	      1.94584784	     39.13560046	     -0.25242470	     -7.49999987	    -30.58347328	     -0.68156963	      6.15630468	     68.84381287	    -29.37370414	     19.81455806	     86.99244566	     86.85027192	     76.50476618	    -31.52325057	     36.57430374	     87.64084574	     85.19503077
      2.46666670	    -42.32573353	     -6.10065235	      1.28494690	      1.05176285	      0.53641547	     -0.26130272	    118.24218423	     -9.51696802	     -2.83284117	    111.36921158	      1.94375943	     40.71441772	     -2.73154448	     -7.49999987	    119.83096360	    -19.87376816	      7.19045661	    111.79798829	      1.95124299	     37.88441831	     -2.08684153	     -7.49999987	    -33.11462828	     -0.42209836	      5.63974231	     72.47922952	    -29.99520569	     21.14050071	     85.29626116	     87.00574018	     79.27307563	    -29.97109964	     37.60888051	     86.15821541	     85.23851900
      2.48333330	    -41.80289481	     -5.75641460	      1.93949841	      1.05134919	      0.52653030	     -0.26286508	    118.97178165	    -10.88243459	     -2.68371002	    111.95533299	      1.95398918	     40.38469650	     -2.10070530	     -7.49999987	    119.84948656	    -19.17290814	      5.94098230	    112.22070918	      1.95862086	     37.05302135	     -3.24336476	     -7.49999987	    -35.26277819	      0.08664280	      5.12383880	     75.55128850	    -30.39086030	     23.17533551	     83.76261742	     84.38270154	     81.59877522	    -30.10414844	     39.02028029	     85.85506363	     82.85636354
